<?xml version="1.0" encoding="UTF-8"?>
<svg id="Layer_1" xmlns="http://www.w3.org/2000/svg" xmlns:xlink="http://www.w3.org/1999/xlink" version="1.1" viewBox="0 0 291.42 179.61">
  <!-- Generator: Adobe Illustrator 30.0.0, SVG Export Plug-In . SVG Version: 2.1.1 Build 123)  -->
  <defs>
    <style>
      .st0, .st1, .st2 {
        isolation: isolate;
      }

      .st0, .st3 {
        opacity: .3;
      }

      .st1 {
        opacity: .01;
      }

      .st4 {
        fill: #8e8e8e;
      }

      .st5 {
        fill: #ff9100;
      }

      .st6 {
        fill: #9b906d;
      }

      .st7 {
        fill: lime;
      }

      .st8 {
        fill: none;
        stroke: #2b1700;
        stroke-miterlimit: 10;
        stroke-width: .43px;
      }

      .st9 {
        fill: blue;
      }

      .st10 {
        fill: #2b1700;
      }

      .st11 {
        fill: #fff;
      }

      .st2 {
        fill: #fc4c4c;
        opacity: .64;
      }
    </style>
  </defs>
  <g id="Spindles_and_Tape">
    <path id="Tape" class="st10" d="M204.25,28.87c-29.12,0-52.73,23.61-52.73,52.73s23.61,52.73,52.73,52.73,52.73-23.61,52.73-52.73-23.61-52.73-52.73-52.73h0ZM204.07,103.64c-12.18,0-22.06-9.87-22.06-22.06s9.87-22.06,22.06-22.06,22.06,9.87,22.06,22.06-9.87,22.06-22.06,22.06h0Z"/>
    <path id="Tape_Path" class="st8" d="M251.65,58.92s12.15,20.88,9.45,109.17c0,.15-.07-.14,0,0,0,0,1.05,5.04-5.54,5.54l-216.14.72s-16.51,3.05-7.48-19.48c6.45-16.09,32.74-69.85,32.74-69.85"/>
    <path class="st5" d="M226.54,79.41l-3.57-.88h0s.69,2.42-.84,2.78c-1.28.3-1.87-1.81-2.02-2.49h0c-.03-.13-.04-.21-.04-.21,0,0-.05-.21-.06-.49h0c-.9-5.71-6.32-9.8-6.41-9.88-.29-.12-.48-.27-.48-.27,0,0-2.6-1.71-1.67-2.97.93-1.26,2.89.32,2.89.32h0l.61-3.65h0c-3.21-1.76-6.89-2.76-10.81-2.76-12.91,0-23.27,10.86-22.47,23.94.69,11.21,9.81,20.33,21.01,21.04,13.09.82,23.96-9.55,23.96-22.46,0-.68-.04-1.35-.09-2.02h0ZM215.94,82.99h0c-.43,3.28-2.2,6.14-4.73,8.02h0l-1.53-2.65h0l-2.52,1.46h0l1.52,2.64h0c-1.4.58-2.94.9-4.56.9-1.75,0-3.41-.38-4.91-1.06h0l1.62-2.81h0l-2.52-1.46h0l-1.58,2.75h0c-2.4-1.9-4.05-4.7-4.44-7.89h3.35v-2.91h-3.35c.4-3.29,2.14-6.17,4.66-8.07h0l1.62,2.81h0l2.52-1.46h0l-1.63-2.82h0c1.43-.61,3.01-.94,4.66-.94s3.11.32,4.5.88h0l-1.54,2.66h0l2.52,1.46h0l1.56-2.7h0c2.62,1.92,4.43,4.88,4.81,8.28h-2.97v2.91h2.94Z"/>
    <path class="st9" d="M226.55,79.24c-1.44-12.18-10.23-16.88-11.47-17.49-.07-.04-.16,0-.17.09l-.55,3.3c0,.09-.11.14-.19.08-.48-.34-1.96-1.25-2.73-.21-.93,1.26,1.67,2.97,1.67,2.97,0,0,1.02.81,1.95.16.93-.65,1.26-1.1,1.26-1.1,0,0,.26-.71,1.45.41h0c1.68,2.15,2.79,3.76,3.52,4.97.14.24.29.49.43.75,1.61,2.92.45,2.86.45,2.86,0,0-.54.12-1.51.72s-.62,1.86-.62,1.86c0,0,.54,3.06,2.07,2.7,1.27-.3,1.01-2.01.89-2.59-.02-.09.06-.16.15-.14l3.23.79c.09.02.17-.05.16-.14h.01Z"/>
    <path class="st5" d="M64.58,82.25l3.52,1.05h0s-.56-2.45.98-2.73c1.3-.24,1.78,1.9,1.9,2.59h0c.02.13.03.21.03.21,0,0,.04.21.03.5h0c.61,5.75,5.81,10.11,5.91,10.19.28.13.47.29.47.29,0,0,2.51,1.83,1.52,3.05-1,1.21-2.87-.47-2.87-.47h0l-.79,3.62h0c3.12,1.92,6.74,3.11,10.66,3.31,12.9.65,23.79-9.67,23.65-22.77-.12-11.23-8.77-20.8-19.93-22.07-13.03-1.48-24.41,8.33-25.07,21.23-.03.68-.03,1.35,0,2.02h0v-.02ZM75.34,79.21h0c.6-3.25,2.51-6.02,5.13-7.77h0l1.39,2.72h0l2.59-1.33h0l-1.38-2.71h0c1.43-.51,2.98-.75,4.6-.67,1.75.09,3.39.55,4.85,1.31h0l-1.76,2.72h0l2.44,1.59h0l1.72-2.67h0c2.3,2.02,3.81,4.9,4.04,8.1h0l-3.35-.17h0l-.15,2.91h0l3.35.17h0c-.57,3.27-2.45,6.05-5.06,7.82h0l-1.48-2.89h0l-2.59,1.33h0l1.49,2.9h0c-1.46.54-3.05.79-4.7.7s-3.09-.48-4.45-1.11h0l1.67-2.58h0l-2.44-1.59h0l-1.69,2.62h0c-2.52-2.05-4.18-5.1-4.39-8.51h0l2.97.15h0l.15-2.91h0l-2.94-.15v.02Z"/>
    <path class="st9" d="M64.56,82.42c.82,12.24,9.36,17.38,10.57,18.05.07.04.16,0,.18-.08l.71-3.26c.02-.09.12-.13.19-.07.46.37,1.89,1.35,2.72.34,1-1.21-1.52-3.05-1.52-3.05,0,0-.97-.86-1.94-.26s-1.31,1.03-1.31,1.03c0,0-.3.7-1.43-.49h0c-1.57-2.24-2.6-3.9-3.27-5.14-.13-.25-.26-.5-.4-.77-1.46-3-.31-2.88-.31-2.88,0,0,.54-.1,1.54-.65s.71-1.82.71-1.82c0,0-.39-3.09-1.93-2.8-1.28.24-1.11,1.96-1.01,2.54.01.09-.07.16-.16.13l-3.18-.95c-.08-.03-.17.05-.16.13Z"/>
    <path id="Small_Spindle_Right" class="st7" d="M255.99,159.31c-4.31,0-7.82,3.5-7.82,7.82s3.5,7.82,7.82,7.82,7.82-3.5,7.82-7.82-3.5-7.82-7.82-7.82h0ZM255.99,170.04c-1.61,0-2.92-1.31-2.92-2.92s1.31-2.92,2.92-2.92,2.92,1.31,2.92,2.92-1.31,2.92-2.92,2.92Z"/>
    <path id="Small_Spindle_Right1" class="st7" d="M35.38,159.31c-4.31,0-7.82,3.5-7.82,7.82s3.5,7.82,7.82,7.82,7.82-3.5,7.82-7.82-3.5-7.82-7.82-7.82ZM35.38,170.04c-1.61,0-2.92-1.31-2.92-2.92s1.31-2.92,2.92-2.92,2.92,1.31,2.92,2.92-1.31,2.92-2.92,2.92Z"/>
    <rect id="Head_Pad" class="st6" x="141" y="172.32" width="8.74" height="1.48"/>
  </g>
  <g id="Meter" class="st3">
    <rect class="st0" x="113.35" y="66.01" width="6.82" height="31.18"/>
    <rect class="st0" x="120.61" y="66.01" width="6.82" height="31.18"/>
    <rect class="st0" x="127.86" y="66.01" width="6.82" height="31.18"/>
    <rect class="st0" x="135.11" y="66.01" width="6.82" height="31.18"/>
    <rect class="st0" x="142.36" y="66.01" width="6.82" height="31.18"/>
    <rect class="st0" x="149.6" y="66.01" width="6.82" height="31.18"/>
    <rect class="st0" x="156.85" y="66.01" width="6.82" height="31.18"/>
    <rect class="st0" x="164.1" y="66.01" width="6.82" height="31.18"/>
    <rect class="st0" x="171.34" y="66.01" width="6.82" height="31.18"/>
  </g>
  <g id="Tape_Shell">
    <path id="Write_Protect_Right" class="st2" d="M29.21.15h-5.82v8.56s0,4.27,5.75,4.31h0c5.82,0,5.82-4.3,5.82-4.3V.15h-5.75Z"/>
    <path id="Write_Protect_Right1" class="st2" d="M258.89.15h-5.82v8.56s0,4.27,5.75,4.31h0c5.82,0,5.82-4.3,5.82-4.3V.15h-5.75Z"/>
    <path class="st2" d="M287.44,118.6V6.98c0-3.77-3.06-6.83-6.83-6.83H10.81c-3.77-.01-6.83,3.05-6.83,6.83v105.24L0,114.31v45.5l3.98,3.71v9.26c0,3.77,3.06,6.83,6.83,6.83h44.72l2.66-15.95,11.75,4.55c.34,4.51,4.1,8.06,8.7,8.06,3.3,0,6.18-1.84,7.66-4.54l1.07,3.84h3.48l-3.77-12.72h6.26v3.34h4.24v-6.99l18.37-.42v13.55h25.05v.76h8.74v-.76h25.45v-8.8h0v-4.75l18.37.42v6.99h4.24v-3.34h6.48v-.04l-3.77,12.76h3.48l1.07-3.84c1.48,2.71,4.36,4.54,7.66,4.54,4.6,0,8.36-3.55,8.7-8.06l11.76-4.56,2.75,15.95h44.66c3.77,0,6.83-3.06,6.83-6.83v-2.88l3.98-3.71v-45.5l-3.98-2.09h.02ZM78.36,174.83c-3.52,0-6.38-2.86-6.38-6.38s2.86-6.38,6.38-6.38,6.38,2.86,6.38,6.38-2.86,6.38-6.38,6.38ZM171.91,172h-52.63v-13.23l18.04-3.48v-.03c1.39,3.3,4.66,5.61,8.46,5.61s7-2.27,8.42-5.51l17.68,3.41v4.75h.03v8.48h0ZM138.49,151.68c0-3.91,3.17-7.09,7.09-7.09s7.09,3.17,7.09,7.09-3.17,7.09-7.09,7.09-7.09-3.17-7.09-7.09ZM212.71,174.83c-3.52,0-6.38-2.86-6.38-6.38s2.86-6.38,6.38-6.38,6.38,2.86,6.38,6.38-2.86,6.38-6.38,6.38ZM205.96,158.2l-51.68-9.97c-1.37-3.36-4.66-5.73-8.51-5.73s-7.09,2.33-8.48,5.64l-52.11,10.06h-26.09l3.2-19.21h166.65l3.31,19.21h-26.29,0ZM284.05,159.31s0,4.18-5.67,4.25c-7.83.1-7.5,7.48-7.5,7.48,0,0,.55,7.23-5.22,7.12-9.31-.19-26.87-.15-26.87-.15l-6.9-41.88h-79.23l-3.41-6.45h-6.54l-3.41,6.52H59.01l-6.32,41.81s-17.12-.04-26.43.15c-5.76.12-5.22-7.12-5.22-7.12,0,0,.34-7.38-7.5-7.48-5.67-.07-5.67-4.25-5.67-4.25V19.05h28.94c6.38,0,6.4-4.63,6.4-4.63V4.87l99.25.22h6.99l99.25-.22v9.56s-.54,4.63,6.4,4.63h28.94v140.25h.01Z"/>
    <path class="st2" d="M287.44,118.45V6.83c0-3.77-3.06-6.83-6.83-6.83H10.81C7.04,0,3.98,3.06,3.98,6.83v105.24l-3.98,2.09v45.5l3.98,3.71v9.26c0,3.77,3.06,6.83,6.83,6.83h269.8c3.77,0,6.83-3.06,6.83-6.83v-2.88l3.98-3.71v-45.5l-3.98-2.09h0ZM78.36,174.69c-3.52,0-6.38-2.86-6.38-6.38s2.86-6.38,6.38-6.38,6.38,2.86,6.38,6.38-2.86,6.38-6.38,6.38ZM86.91,95.63c-7.83,0-14.17-6.35-14.17-14.17s6.35-14.17,14.17-14.17,14.17,6.35,14.17,14.17-6.35,14.17-14.17,14.17ZM113.35,168.23c0,2.18-1.77,3.95-3.95,3.95h-4.37c-2.18,0-3.95-1.77-3.95-3.95v-4.37c0-2.18,1.77-3.95,3.95-3.95h4.37c2.18,0,3.95,1.77,3.95,3.95v4.37ZM145.58,158.77c-3.91,0-7.09-3.17-7.09-7.09s3.17-7.09,7.09-7.09,7.09,3.17,7.09,7.09-3.17,7.09-7.09,7.09ZM178.16,97.05h-65.2v-31.18h65.2v31.18ZM190.48,168.23c0,2.18-1.77,3.95-3.95,3.95h-4.37c-2.18,0-3.95-1.77-3.95-3.95v-4.37c0-2.18,1.77-3.95,3.95-3.95h4.37c2.18,0,3.95,1.77,3.95,3.95v4.37ZM190.05,81.46c0-7.83,6.35-14.17,14.17-14.17s14.17,6.35,14.17,14.17-6.35,14.17-14.17,14.17-14.17-6.35-14.17-14.17ZM212.71,174.69c-3.52,0-6.38-2.86-6.38-6.38s2.86-6.38,6.38-6.38,6.38,2.86,6.38,6.38-2.86,6.38-6.38,6.38Z"/>
    <path class="st2" d="M232.11,136.11H59.2l-6.77,43.5h186.68l-7-43.5h0ZM78.36,174.83c-3.52,0-6.38-2.86-6.38-6.38s2.86-6.38,6.38-6.38,6.38,2.86,6.38,6.38-2.86,6.38-6.38,6.38ZM113.35,168.37c0,2.18-1.77,3.95-3.95,3.95h-4.37c-2.18,0-3.95-1.77-3.95-3.95v-4.37c0-2.18,1.77-3.95,3.95-3.95h4.37c2.18,0,3.95,1.77,3.95,3.95v4.37ZM145.58,158.05c-3.91,0-6.37-3.27-6.37-6.37,0-3.92,3.25-6.37,6.37-6.37,3.92,0,6.29,3.18,6.37,6.37.1,3.92-3.68,6.37-6.37,6.37ZM190.48,168.37c0,2.18-1.77,3.95-3.95,3.95h-4.37c-2.18,0-3.95-1.77-3.95-3.95v-4.37c0-2.18,1.77-3.95,3.95-3.95h4.37c2.18,0,3.95,1.77,3.95,3.95v4.37ZM212.71,174.83c-3.52,0-6.38-2.86-6.38-6.38s2.86-6.38,6.38-6.38,6.38,2.86,6.38,6.38-2.86,6.38-6.38,6.38Z"/>
  </g>
  <g id="Screws">
    <circle id="Screw_SE" class="st4" cx="278.53" cy="171.04" r="4.96"/>
    <path class="st1" d="M278.53,169.59l2.19-1.59c.52-.38,1.18.26.8.79l-1.57,2.25,1.57,2.25c.37.53-.28,1.17-.8.79l-2.19-1.59-2.19,1.59c-.52.38-1.18-.26-.8-.79l1.57-2.25-1.57-2.25c-.37-.53.28-1.17.8-.79l2.19,1.59Z"/>
    <circle id="Screw_SW" class="st4" cx="12.57" cy="171.04" r="4.96"/>
    <path class="st1" d="M12.57,169.59l2.19-1.59c.52-.38,1.18.26.8.79l-1.57,2.25,1.57,2.25c.37.53-.28,1.17-.8.79l-2.19-1.59-2.19,1.59c-.52.38-1.18-.26-.8-.79l1.57-2.25-1.57-2.25c-.37-.53.28-1.17.8-.79l2.19,1.59Z"/>
    <path id="Screw_Middle" class="st4" d="M145.58,145.3c3.61,0,6.38,2.86,6.38,6.38s-2.86,6.38-6.38,6.38-6.38-2.86-6.38-6.38,2.86-6.38,6.38-6.38Z"/>
    <path class="st1" d="M145.58,149.61l3.16-2.28c.76-.54,1.69.38,1.15,1.14l-2.27,3.21,2.27,3.21c.53.76-.4,1.68-1.15,1.14l-3.16-2.28-3.16,2.28c-.76.54-1.69-.38-1.15-1.14l2.27-3.21-2.27-3.21c-.53-.76.4-1.68,1.15-1.14l3.16,2.28Z"/>
    <circle id="Screw_NW" class="st4" cx="12.49" cy="8.76" r="4.96"/>
    <path class="st1" d="M12.49,7.33l2.19-1.57c.52-.37,1.18.26.8.77l-1.57,2.21,1.57,2.21c.37.53-.28,1.15-.8.77l-2.19-1.57-2.19,1.57c-.52.37-1.18-.26-.8-.77l1.57-2.21-1.57-2.21c-.37-.53.28-1.15.8-.77,0,0,2.19,1.57,2.19,1.57Z"/>
    <circle id="Screw_NE" class="st4" cx="278.53" cy="8.76" r="4.96"/>
    <path class="st1" d="M278.59,7.33l2.19-1.59c.52-.38,1.18.26.8.79l-1.57,2.25,1.57,2.25c.37.53-.28,1.17-.8.79l-2.19-1.59-2.19,1.59c-.52.38-1.18-.26-.8-.79l1.57-2.25-1.57-2.25c-.37-.53.28-1.17.8-.79l2.19,1.59Z"/>
  </g>
  <path id="Full_Label" class="st11" d="M264.5,15.73H26.97c-3.28,0-5.94,2.66-5.94,5.94v100.08c0,3.28,2.66,5.94,5.94,5.94h237.53c3.28,0,5.94-2.66,5.94-5.94V21.67c0-3.28-2.66-5.94-5.94-5.94ZM229.65,101.77c0,2.92-2.37,5.29-5.29,5.29H66.68c-2.92,0-5.29-2.37-5.29-5.29v-40.18c0-2.92,2.37-5.29,5.29-5.29h157.68c2.92,0,5.29,2.37,5.29,5.29v40.18h0Z"/>
  <g id="Paper_Labels">
    <rect id="Lower_Label" class="st11" x="21.04" y="107.07" width="249.41" height="20.62" rx="6.42" ry="6.42"/>
    <rect id="Upper_Label" class="st11" x="21.04" y="15.73" width="249.41" height="40.57" rx="5.94" ry="5.94"/>
  </g>
</svg>